<mxfile host="app.diagrams.net" modified="2024-06-19T01:57:35.695Z" agent="Mozilla/5.0 (Macintosh; Intel Mac OS X 10_15_7) AppleWebKit/537.36 (KHTML, like Gecko) Chrome/126.0.0.0 Safari/537.36" version="24.5.5" etag="r5YnVjO84cEy9ZA1Xa9h" type="github">
  <diagram name="第 1 页" id="5OdDK6xcrOqgrViuFWOF">
    <mxGraphModel>
      <root>
        <mxCell id="0" />
        <mxCell id="1" parent="0" />
      </root>
    </mxGraphModel>
  </diagram>
</mxfile>
